<svg width="242" height="58" viewBox="0 0 242 58" version="1.1" xmlns="http://www.w3.org/2000/svg" xmlns:xlink="http://www.w3.org/1999/xlink">
<title>logo-full 2</title>
<desc>Created using Figma</desc>
<g id="Canvas" transform="translate(415 -167)">
<g id="logo-full 2">
<g id="Group">
<g id="Group">
<g id="Vector">
<use xlink:href="#path0_fill" transform="translate(-401.028 179.074)" fill="#FFFFFF"/>
</g>
<g id="Vector">
<use xlink:href="#path1_stroke" transform="translate(-413 169)" fill="#FFFFFF"/>
</g>
<g id="Vector">
<use xlink:href="#path2_fill" transform="translate(-392.171 177.442)" fill="#FFFFFF"/>
<use xlink:href="#path3_stroke" transform="translate(-392.171 177.442)" fill="#FFFFFF"/>
</g>
<g id="Vector">
<use xlink:href="#path4_fill" transform="translate(-390.441 185.486)" fill="#FFFFFF"/>
<use xlink:href="#path5_stroke" transform="translate(-390.441 185.486)" fill="#FFFFFF"/>
</g>
</g>
<g id="Vector">
<use xlink:href="#path6_fill" transform="translate(-350.421 180.234)" fill="#FFFFFF"/>
</g>
</g>
</g>
</g>
<defs>
<path id="path0_fill" fill-rule="evenodd" d="M 25.6244 18.1573C 25.6795 16.7105 22.9948 14.6511 23.4767 12.6615C 23.9585 10.6716 23.8896 8.79309 22.816 6.17742C 22.816 6.17742 24.5505 6.85946 24.3715 5.50967C 24.1925 4.16007 22.2789 2.74085 20.8473 1.83642C 20.2001 1.43291 18.4381 0.556462 16.0702 0.0416603L 15.6297 1.26607C 15.7261 1.30773 17.0751 1.92014 17.6394 2.50438L 18.0938 1.87828C 18.0938 1.87828 20.737 3.32548 21.5492 6.52558L 20.8471 6.76205L 20.8471 6.74797C 20.902 6.94298 21.6455 9.46144 20.8057 12.2439L 18.8784 11.5901C 18.782 11.8545 17.8045 14.3174 16.5106 14.7485L 15.2992 13.1347C 14.7209 13.5939 13.3854 13.9974 12.7522 13.8165L 12.7522 13.761L 12.7247 13.761L 12.766 18.2271C 10.2192 18.4916 7.17685 16.9333 5.7175 14.7904L 4.12055 16.0148C 2.30338 13.8024 2.02799 11.1306 2.01425 9.6003L 4.16177 9.6003C 4.16177 7.90295 4.82265 5.69039 5.74497 4.46618L 7.42456 5.66282C 7.56215 5.49598 8.82875 3.96526 10.5219 3.4086C 10.5356 3.4086 10.5356 3.4086 10.5494 3.39491L 9.28275 3.85127e-07C 8.09898 0.264245 6.88753 0.695527 5.68982 1.33551C -3.96056 6.52538 0.940201 16.6687 3.92761 19.0899C 6.91481 21.5108 5.5381 26.4223 3.92761 30.8748L 16.8957 30.8748C 17.0747 30.0396 16.9232 31.2922 17.5289 27.9528C 18.1347 24.6273 20.4612 25.8657 22.2923 25.7544C 24.1232 25.6431 23.8341 24.349 23.8203 22.902C 24.715 22.4985 24.715 22.0672 24.123 21.5383C 24.894 20.815 24.7839 20.815 24.3572 20.1054C 23.944 19.3956 24.2333 19.0617 24.2333 19.0617C 24.2333 19.0617 25.4456 18.8253 25.6244 18.1573L 25.6244 18.1573Z"/>
<path id="path1_stroke" d="M 24.6559 -2.63543e-11L 25.0798 -1.21889L 24.6512 -1.36796L 24.2236 -1.21593L 24.6559 -2.63543e-11ZM 4.45786e-10 8.76611L -0.432311 7.55017L -1.38911 7.89035L -1.2835 8.90032L 4.45786e-10 8.76611ZM 3.48301 42.0756L 2.19951 42.2099L 2.26932 42.8774L 2.85594 43.2036L 3.48301 42.0756ZM 24.9311 54L 24.304 55.1279L 24.9393 55.4811L 25.5707 55.1209L 24.9311 54ZM 45.829 42.0756L 46.4685 43.1965L 47.0321 42.8749L 47.1101 42.2308L 45.829 42.0756ZM 49.8626 8.76611L 51.1437 8.92125L 51.2687 7.88881L 50.2865 7.54721L 49.8626 8.76611ZM 24.2236 -1.21593L -0.432311 7.55017L 0.432311 9.98204L 25.0882 1.21593L 24.2236 -1.21593ZM -1.2835 8.90032L 2.19951 42.2099L 4.76652 41.9414L 1.2835 8.6319L -1.2835 8.90032ZM 2.85594 43.2036L 24.304 55.1279L 25.5582 52.8721L 4.11009 40.9477L 2.85594 43.2036ZM 25.5707 55.1209L 46.4685 43.1965L 45.1894 40.9548L 24.2915 52.8791L 25.5707 55.1209ZM 47.1101 42.2308L 51.1437 8.92125L 48.5814 8.61097L 44.5478 41.9205L 47.1101 42.2308ZM 50.2865 7.54721L 25.0798 -1.21889L 24.232 1.21889L 49.4387 9.985L 50.2865 7.54721Z"/>
<path id="path2_fill" fill-rule="evenodd" d="M 0.385497 1.65975C 2.90477 0.922168 4.81832 0.894593 6.95209 1.70121C 7.03473 1.72919 7.10343 1.77085 7.15858 1.81251L 7.59923 0.810876C 4.06126 -0.92834 1.79874e-07 0.671413 1.79874e-07 0.671413L 0.385497 1.65975Z"/>
<path id="path3_stroke" d="M 0.385497 1.65975L 0.152587 1.7506L 0.235847 1.96406L 0.455742 1.89968L 0.385497 1.65975ZM 6.95209 1.70121L 6.86364 1.93521L 6.87194 1.93802L 6.95209 1.70121ZM 7.15858 1.81251L 7.0079 2.012L 7.26013 2.20251L 7.38742 1.91318L 7.15858 1.81251ZM 7.59923 0.810876L 7.82807 0.911548L 7.92456 0.692225L 7.70952 0.586519L 7.59923 0.810876ZM 1.79874e-07 0.671413L -0.0916241 0.438808L -0.323452 0.530126L -0.23291 0.762258L 1.79874e-07 0.671413ZM 0.455742 1.89968C 2.93592 1.17354 4.79213 1.15196 6.86369 1.93506L 7.0405 1.46737C 4.84451 0.637227 2.87362 0.670794 0.315251 1.41982L 0.455742 1.89968ZM 6.87194 1.93802C 6.92304 1.95531 6.96819 1.982 7.0079 2.012L 7.30926 1.61302C 7.23867 1.5597 7.14642 1.50306 7.03225 1.46441L 6.87194 1.93802ZM 7.38742 1.91318L 7.82807 0.911548L 7.3704 0.710204L 6.92975 1.71183L 7.38742 1.91318ZM 7.70952 0.586519C 5.88018 -0.312759 3.92549 -0.344931 2.44181 -0.159124C 1.69816 -0.0659932 1.06748 0.0825467 0.62208 0.207988C 0.399239 0.270749 0.222384 0.32784 0.100511 0.369524C 0.0395637 0.39037 -0.00766608 0.407375 -0.0400551 0.419324C -0.0562507 0.425298 -0.068739 0.43001 -0.0773798 0.433308C -0.0817002 0.434957 -0.0850592 0.436252 -0.087439 0.437175C -0.0886289 0.437637 -0.089574 0.438005 -0.0902723 0.438278C -0.0906214 0.438414 -0.0909088 0.438527 -0.0911342 0.438616C -0.0912469 0.43866 -0.0913695 0.438708 -0.0914258 0.43873C -0.0915327 0.438772 -0.0916241 0.438808 1.79874e-07 0.671413C 0.0916245 0.904018 0.091564 0.904041 0.091519 0.904059C 0.0915246 0.904057 0.0914948 0.904069 0.0915058 0.904064C 0.0915278 0.904056 0.0916111 0.904023 0.0917556 0.903967C 0.0920445 0.903854 0.0925778 0.903646 0.0933534 0.903345C 0.0949047 0.902743 0.097425 0.901771 0.100897 0.900446C 0.107841 0.897796 0.118589 0.893737 0.133003 0.888419C 0.161832 0.877784 0.205311 0.862117 0.262324 0.842617C 0.376372 0.803608 0.544443 0.749306 0.757626 0.689265C 1.18428 0.569104 1.79003 0.426406 2.50394 0.337001C 3.93539 0.157735 5.78031 0.195294 7.48894 1.03523L 7.70952 0.586519ZM -0.23291 0.762258L 0.152587 1.7506L 0.618407 1.56891L 0.23291 0.580568L -0.23291 0.762258Z"/>
<path id="path4_fill" d="M 1.99621 4.035C 3.09869 4.035 3.99243 3.13174 3.99243 2.0175C 3.99243 0.903266 3.09869 0 1.99621 0C 0.893735 0 0 0.903266 0 2.0175C 0 3.13174 0.893735 4.035 1.99621 4.035Z"/>
<path id="path5_stroke" d="M 3.74243 2.0175C 3.74243 2.99617 2.95813 3.785 1.99621 3.785L 1.99621 4.285C 3.23926 4.285 4.24243 3.2673 4.24243 2.0175L 3.74243 2.0175ZM 1.99621 3.785C 1.0343 3.785 0.25 2.99617 0.25 2.0175L -0.25 2.0175C -0.25 3.2673 0.75317 4.285 1.99621 4.285L 1.99621 3.785ZM 0.25 2.0175C 0.25 1.03883 1.0343 0.25 1.99621 0.25L 1.99621 -0.25C 0.75317 -0.25 -0.25 0.767702 -0.25 2.0175L 0.25 2.0175ZM 1.99621 0.25C 2.95813 0.25 3.74243 1.03883 3.74243 2.0175L 4.24243 2.0175C 4.24243 0.767702 3.23926 -0.25 1.99621 -0.25L 1.99621 0.25Z"/>
<path id="path6_fill" fill-rule="evenodd" d="M 24.3255 14.0306C 24.3255 16.0431 23.9908 17.891 23.3214 19.5745C 22.652 21.2579 21.7111 22.7071 20.4986 23.9222C 19.2861 25.1373 17.8273 26.0803 16.1223 26.7511C 14.4172 27.422 12.529 27.7574 10.4577 27.7574L 2.0692e-06 27.7574L 2.0692e-06 0.303774L 10.4577 0.303774C 12.529 0.303774 14.4172 0.642352 16.1223 1.31952C 17.8273 1.99669 19.2861 2.93964 20.4986 4.14842C 21.7111 5.35719 22.652 6.80327 23.3214 8.4867C 23.9908 10.1701 24.3255 12.0181 24.3255 14.0306L 24.3255 14.0306ZM 19.1156 14.0306C 19.1156 12.5244 18.9135 11.1732 18.5093 9.97709C 18.1052 8.78097 17.5305 7.7684 16.7854 6.93935C 16.0402 6.11029 15.134 5.47427 14.0667 5.03126C 12.9995 4.58826 11.7965 4.36676 10.4577 4.36676L 5.13412 4.36676L 5.13412 23.6944L 10.4577 23.6944C 11.7965 23.6944 12.9995 23.4729 14.0667 23.0299C 15.134 22.5869 16.0402 21.9509 16.7854 21.1218C 17.5305 20.2928 18.1052 19.2802 18.5093 18.0841C 18.9135 16.888 19.1156 15.5368 19.1156 14.0306L 19.1156 14.0306ZM 43.2895 27.7574L 41.1866 27.7574C 40.7446 27.7574 40.3973 27.6909 40.1446 27.558C 39.892 27.4251 39.7026 27.1562 39.5763 26.7511L 39.1595 25.3652C 38.6669 25.8082 38.1838 26.1974 37.7102 26.5328C 37.2366 26.8682 36.7472 27.1498 36.242 27.3777C 35.7368 27.6055 35.2 27.7764 34.6316 27.8903C 34.0633 28.0042 33.4318 28.0612 32.7371 28.0612C 31.9162 28.0612 31.1584 27.9504 30.4637 27.7289C 29.769 27.5074 29.1723 27.1752 28.6734 26.7321C 28.1745 26.2891 27.7861 25.7386 27.5083 25.0804C 27.2304 24.4222 27.0915 23.6564 27.0915 22.7831C 27.0915 22.049 27.2841 21.3243 27.6693 20.6092C 28.0545 19.8941 28.6955 19.2485 29.5922 18.6726C 30.489 18.0967 31.6825 17.6189 33.1729 17.2392C 34.6632 16.8595 36.5135 16.6443 38.7238 16.5937L 38.7238 15.4545C 38.7238 14.1508 38.4491 13.1857 37.8997 12.5592C 37.3502 11.9326 36.5514 11.6194 35.5031 11.6194C 34.7453 11.6194 34.1138 11.708 33.6086 11.8852C 33.1034 12.0624 32.6645 12.2617 32.2919 12.4832C 31.9193 12.7047 31.5752 12.9041 31.2594 13.0813C 30.9436 13.2585 30.5963 13.3471 30.2174 13.3471C 29.9017 13.3471 29.6301 13.2648 29.4028 13.1003C 29.1754 12.9357 28.9923 12.7332 28.8534 12.4927L 28.0008 10.9928C 30.2364 8.94235 32.9329 7.91712 36.0904 7.91712C 37.2271 7.91712 38.2407 8.10381 39.1311 8.4772C 40.0215 8.8506 40.7761 9.36954 41.395 10.034C 42.0139 10.6986 42.4844 11.4928 42.8064 12.4168C 43.1285 13.3408 43.2895 14.3533 43.2895 15.4545L 43.2895 27.7574L 43.2895 27.7574ZM 34.1959 24.8336C 34.6758 24.8336 35.1179 24.7893 35.522 24.7007C 35.9262 24.6121 36.3083 24.4792 36.6682 24.302C 37.0282 24.1247 37.3755 23.9064 37.7102 23.6469C 38.0449 23.3875 38.3828 23.0805 38.7238 22.7261L 38.7238 19.4416C 37.3597 19.5049 36.2199 19.6219 35.3042 19.7928C 34.3885 19.9637 33.6528 20.182 33.0971 20.4478C 32.5413 20.7136 32.1467 21.0237 31.913 21.3781C 31.6793 21.7325 31.5625 22.1186 31.5625 22.5363C 31.5625 23.359 31.8056 23.9475 32.2919 24.302C 32.7782 24.6564 33.4128 24.8336 34.1959 24.8336L 34.1959 24.8336ZM 54.2777 28.0612C 52.5979 28.0612 51.3033 27.5834 50.3939 26.6277C 49.4846 25.6721 49.0299 24.3526 49.0299 22.6692L 49.0299 11.7902L 47.0596 11.7902C 46.807 11.7902 46.5891 11.708 46.406 11.5434C 46.2229 11.3789 46.1313 11.1321 46.1313 10.803L 46.1313 8.94236L 49.2572 8.42974L 50.2424 3.11369C 50.2929 2.86054 50.4097 2.66436 50.5929 2.52512C 50.776 2.38589 51.0065 2.31628 51.2844 2.31628L 53.7093 2.31628L 53.7093 8.44873L 58.8245 8.44873L 58.8245 11.7902L 53.7093 11.7902L 53.7093 22.3464C 53.7093 22.954 53.8609 23.4286 54.164 23.7703C 54.4671 24.1121 54.8713 24.283 55.3765 24.283C 55.667 24.283 55.9101 24.2482 56.1059 24.1785C 56.3017 24.1089 56.4722 24.0362 56.6174 23.9602C 56.7626 23.8843 56.8921 23.8115 57.0058 23.7419C 57.1194 23.6723 57.2331 23.6374 57.3468 23.6374C 57.4857 23.6374 57.5994 23.6723 57.6878 23.7419C 57.7762 23.8115 57.8709 23.9159 57.972 24.0551L 59.3739 26.3334C 58.6919 26.903 57.9088 27.3334 57.0247 27.6245C 56.1406 27.9156 55.2249 28.0612 54.2777 28.0612L 54.2777 28.0612ZM 77.7885 27.7574L 75.6856 27.7574C 75.2436 27.7574 74.8963 27.6909 74.6437 27.558C 74.391 27.4251 74.2016 27.1562 74.0753 26.7511L 73.6585 25.3652C 73.1659 25.8082 72.6828 26.1974 72.2092 26.5328C 71.7356 26.8682 71.2462 27.1498 70.741 27.3777C 70.2358 27.6055 69.699 27.7764 69.1306 27.8903C 68.5623 28.0042 67.9308 28.0612 67.2361 28.0612C 66.4152 28.0612 65.6574 27.9504 64.9627 27.7289C 64.2681 27.5074 63.6713 27.1752 63.1724 26.7321C 62.6735 26.2891 62.2851 25.7386 62.0073 25.0804C 61.7294 24.4222 61.5905 23.6564 61.5905 22.7831C 61.5905 22.049 61.7831 21.3243 62.1683 20.6092C 62.5535 19.8941 63.1945 19.2485 64.0912 18.6726C 64.988 18.0967 66.1815 17.6189 67.6719 17.2392C 69.1622 16.8595 71.0125 16.6443 73.2228 16.5937L 73.2228 15.4545C 73.2228 14.1508 72.9481 13.1857 72.3987 12.5592C 71.8493 11.9326 71.0504 11.6194 70.0021 11.6194C 69.2443 11.6194 68.6128 11.708 68.1076 11.8852C 67.6024 12.0624 67.1635 12.2617 66.7909 12.4832C 66.4183 12.7047 66.0742 12.9041 65.7584 13.0813C 65.4427 13.2585 65.0953 13.3471 64.7164 13.3471C 64.4007 13.3471 64.1291 13.2648 63.9018 13.1003C 63.6744 12.9357 63.4913 12.7332 63.3524 12.4927L 62.4999 10.9928C 64.7354 8.94235 67.4319 7.91712 70.5894 7.91712C 71.7261 7.91712 72.7397 8.10381 73.6301 8.4772C 74.5205 8.8506 75.2751 9.36954 75.894 10.034C 76.5129 10.6986 76.9834 11.4928 77.3054 12.4168C 77.6275 13.3408 77.7885 14.3533 77.7885 15.4545L 77.7885 27.7574L 77.7885 27.7574ZM 68.6949 24.8336C 69.1748 24.8336 69.6169 24.7893 70.021 24.7007C 70.4252 24.6121 70.8073 24.4792 71.1672 24.302C 71.5272 24.1247 71.8745 23.9064 72.2092 23.6469C 72.5439 23.3875 72.8818 23.0805 73.2228 22.7261L 73.2228 19.4416C 71.8587 19.5049 70.7189 19.6219 69.8032 19.7928C 68.8875 19.9637 68.1518 20.182 67.5961 20.4478C 67.0403 20.7136 66.6457 21.0237 66.412 21.3781C 66.1783 21.7325 66.0615 22.1186 66.0615 22.5363C 66.0615 23.359 66.3046 23.9475 66.7909 24.302C 67.2772 24.6564 67.9118 24.8336 68.6949 24.8336L 68.6949 24.8336ZM 101.489 21.2832C 101.767 21.2832 102.007 21.3908 102.209 21.606L 104.217 23.7893C 103.105 25.169 101.738 26.2259 100.115 26.96C 98.4924 27.6941 96.5442 28.0612 94.2708 28.0612C 92.2373 28.0612 90.4091 27.7131 88.7862 27.0169C 87.1632 26.3208 85.7771 25.3525 84.6277 24.1121C 83.4784 22.8717 82.5974 21.3908 81.9849 19.6694C 81.3723 17.948 81.066 16.0684 81.066 14.0306C 81.066 11.9674 81.407 10.0784 82.0891 8.36329C 82.7711 6.64822 83.731 5.1705 84.9687 3.93008C 86.2065 2.68966 87.6873 1.72456 89.4113 1.03473C 91.1354 0.344907 93.0393 1.2198e-07 95.1233 1.2198e-07C 97.1567 1.2198e-07 98.9344 0.325921 100.456 0.977773C 101.978 1.62963 103.282 2.49348 104.369 3.56935L 102.663 5.94259C 102.562 6.09448 102.433 6.22738 102.275 6.34129C 102.117 6.45521 101.899 6.51216 101.621 6.51216C 101.331 6.51216 101.034 6.39825 100.731 6.17042C 100.428 5.94258 100.043 5.69577 99.5754 5.42997C 99.1081 5.16416 98.5176 4.91735 97.804 4.68952C 97.0904 4.46169 96.1842 4.34777 95.0854 4.34777C 93.7971 4.34777 92.6131 4.57243 91.5332 5.02177C 90.4533 5.47111 89.525 6.11346 88.7483 6.94884C 87.9715 7.78422 87.3653 8.79996 86.9295 9.99608C 86.4938 11.1922 86.2759 12.537 86.2759 14.0306C 86.2759 15.5748 86.4938 16.9481 86.9295 18.1505C 87.3653 19.353 87.9557 20.3655 88.7009 21.1883C 89.4461 22.011 90.3239 22.6407 91.3343 23.0774C 92.3447 23.514 93.4309 23.7324 94.5928 23.7324C 95.2875 23.7324 95.9158 23.6944 96.4779 23.6185C 97.0399 23.5425 97.5577 23.4223 98.0314 23.2577C 98.505 23.0932 98.9534 22.8812 99.3765 22.6217C 99.7996 22.3622 100.22 22.0426 100.636 21.6629C 100.763 21.549 100.895 21.4572 101.034 21.3876C 101.173 21.318 101.325 21.2832 101.489 21.2832L 101.489 21.2832ZM 123.029 27.7574L 120.926 27.7574C 120.484 27.7574 120.137 27.6909 119.885 27.558C 119.632 27.4251 119.442 27.1562 119.316 26.7511L 118.899 25.3652C 118.407 25.8082 117.924 26.1974 117.45 26.5328C 116.976 26.8682 116.487 27.1498 115.982 27.3777C 115.477 27.6055 114.94 27.7764 114.372 27.8903C 113.803 28.0042 113.172 28.0612 112.477 28.0612C 111.656 28.0612 110.898 27.9504 110.204 27.7289C 109.509 27.5074 108.912 27.1752 108.413 26.7321C 107.914 26.2891 107.526 25.7386 107.248 25.0804C 106.97 24.4222 106.831 23.6564 106.831 22.7831C 106.831 22.049 107.024 21.3243 107.409 20.6092C 107.794 19.8941 108.435 19.2485 109.332 18.6726C 110.229 18.0967 111.422 17.6189 112.913 17.2392C 114.403 16.8595 116.253 16.6443 118.464 16.5937L 118.464 15.4545C 118.464 14.1508 118.189 13.1857 117.64 12.5592C 117.09 11.9326 116.291 11.6194 115.243 11.6194C 114.485 11.6194 113.854 11.708 113.348 11.8852C 112.843 12.0624 112.404 12.2617 112.032 12.4832C 111.659 12.7047 111.315 12.9041 110.999 13.0813C 110.684 13.2585 110.336 13.3471 109.957 13.3471C 109.642 13.3471 109.37 13.2648 109.143 13.1003C 108.915 12.9357 108.732 12.7332 108.593 12.4927L 107.741 10.9928C 109.976 8.94235 112.673 7.91712 115.83 7.91712C 116.967 7.91712 117.981 8.10381 118.871 8.4772C 119.761 8.8506 120.516 9.36954 121.135 10.034C 121.754 10.6986 122.224 11.4928 122.546 12.4168C 122.868 13.3408 123.029 14.3533 123.029 15.4545L 123.029 27.7574ZM 113.936 24.8336C 114.416 24.8336 114.858 24.7893 115.262 24.7007C 115.666 24.6121 116.048 24.4792 116.408 24.302C 116.768 24.1247 117.115 23.9064 117.45 23.6469C 117.785 23.3875 118.123 23.0805 118.464 22.7261L 118.464 19.4416C 117.1 19.5049 115.96 19.6219 115.044 19.7928C 114.128 19.9637 113.393 20.182 112.837 20.4478C 112.281 20.7136 111.887 21.0237 111.653 21.3781C 111.419 21.7325 111.302 22.1186 111.302 22.5363C 111.302 23.359 111.546 23.9475 112.032 24.302C 112.518 24.6564 113.153 24.8336 113.936 24.8336L 113.936 24.8336ZM 127.633 27.7574L 127.633 8.27785L 130.494 8.27785C 131.1 8.27785 131.498 8.56264 131.687 9.13222L 131.99 10.5751C 132.331 10.1954 132.688 9.84736 133.061 9.53092C 133.433 9.21449 133.831 8.94236 134.254 8.71453C 134.677 8.4867 135.132 8.30633 135.618 8.17343C 136.105 8.04053 136.638 7.97408 137.219 7.97408C 138.444 7.97408 139.452 8.30633 140.241 8.97084C 141.03 9.63535 141.621 10.5182 142.012 11.6194C 142.316 10.9738 142.694 10.4201 143.149 9.9581C 143.604 9.49611 144.103 9.11956 144.646 8.82844C 145.189 8.53732 145.767 8.32215 146.379 8.18292C 146.992 8.04369 147.607 7.97408 148.226 7.97408C 149.3 7.97408 150.253 8.13862 151.087 8.46771C 151.921 8.7968 152.622 9.27777 153.19 9.91064C 153.758 10.5435 154.191 11.3156 154.488 12.2269C 154.785 13.1382 154.933 14.1825 154.933 15.3596L 154.933 27.7574L 150.253 27.7574L 150.253 15.3596C 150.253 14.1192 149.982 13.1857 149.439 12.5592C 148.896 11.9326 148.1 11.6194 147.052 11.6194C 146.572 11.6194 146.127 11.7016 145.716 11.8662C 145.306 12.0307 144.946 12.2681 144.636 12.5782C 144.327 12.8883 144.084 13.2775 143.907 13.7458C 143.73 14.2141 143.642 14.752 143.642 15.3596L 143.642 27.7574L 138.943 27.7574L 138.943 15.3596C 138.943 14.0559 138.681 13.1066 138.157 12.5117C 137.633 11.9168 136.859 11.6194 135.836 11.6194C 135.167 11.6194 134.539 11.7871 133.951 12.1225C 133.364 12.4579 132.818 12.9167 132.313 13.499L 132.313 27.7574L 127.633 27.7574L 127.633 27.7574ZM 159.537 34.1177L 159.537 8.27785L 162.397 8.27785C 162.7 8.27785 162.959 8.34747 163.174 8.4867C 163.389 8.62593 163.528 8.8411 163.591 9.13222L 163.97 10.9359C 164.753 10.0372 165.653 9.30942 166.669 8.7525C 167.686 8.19558 168.877 7.91712 170.241 7.91712C 171.301 7.91712 172.271 8.13862 173.149 8.58163C 174.026 9.02463 174.784 9.66698 175.422 10.5087C 176.06 11.3504 176.552 12.3883 176.9 13.6224C 177.247 14.8565 177.421 16.2709 177.421 17.8657C 177.421 19.3213 177.225 20.6693 176.833 21.9097C 176.442 23.1501 175.883 24.226 175.157 25.1373C 174.431 26.0487 173.553 26.7606 172.523 27.2732C 171.494 27.7859 170.342 28.0422 169.066 28.0422C 167.967 28.0422 167.036 27.8745 166.272 27.5391C 165.507 27.2036 164.822 26.7385 164.216 26.1436L 164.216 34.1177L 159.537 34.1177L 159.537 34.1177ZM 168.63 11.6194C 167.658 11.6194 166.827 11.8251 166.139 12.2364C 165.451 12.6478 164.81 13.2268 164.216 13.9736L 164.216 22.7071C 164.746 23.3653 165.324 23.8241 165.95 24.0836C 166.575 24.3431 167.247 24.4728 167.967 24.4728C 168.674 24.4728 169.315 24.3399 169.89 24.0741C 170.465 23.8083 170.951 23.4033 171.349 22.859C 171.747 22.3148 172.053 21.6281 172.268 20.7991C 172.482 19.97 172.59 18.9922 172.59 17.8657C 172.59 16.7266 172.498 15.7615 172.315 14.9704C 172.132 14.1793 171.87 13.5369 171.529 13.0433C 171.188 12.5497 170.774 12.1889 170.288 11.9611C 169.802 11.7333 169.249 11.6194 168.63 11.6194L 168.63 11.6194Z"/>
</defs>
</svg>
