<svg xmlns="http://www.w3.org/2000/svg" xmlns:xlink="http://www.w3.org/1999/xlink" width="234.62" height="251.55" viewBox="0 0 234.62 251.55"><defs><style>.cls-1{fill:url(#Dégradé_sans_nom_10);}.cls-2{fill:url(#Dégradé_sans_nom_77);}.cls-3{fill:#ffc844;}.cls-4{fill:url(#Dégradé_sans_nom_107);}.cls-5{fill:url(#Dégradé_sans_nom_107-2);}.cls-6{fill:#f06a8c;}.cls-7{fill:url(#Dégradé_sans_nom_107-3);}.cls-8{fill:url(#Dégradé_sans_nom_54);}.cls-9{fill:url(#Dégradé_sans_nom_4);}.cls-10{fill:url(#Dégradé_sans_nom_107-4);}</style><linearGradient id="Dégradé_sans_nom_10" y1="160.43" x2="168.97" y2="160.43" gradientUnits="userSpaceOnUse"><stop offset="0" stop-color="#ebf4f7"/><stop offset="1" stop-color="#b2cee4"/></linearGradient><linearGradient id="Dégradé_sans_nom_77" x1="38.95" y1="122.42" x2="168.79" y2="122.42" gradientTransform="translate(135.21 -35.04) rotate(51.57)" gradientUnits="userSpaceOnUse"><stop offset="0" stop-color="#9baecf"/><stop offset="1" stop-color="#31437d"/></linearGradient><linearGradient id="Dégradé_sans_nom_107" x1="177.23" y1="47.59" x2="194.6" y2="47.59" gradientUnits="userSpaceOnUse"><stop offset="0" stop-color="#9be8f0"/><stop offset="1" stop-color="#3ac"/></linearGradient><linearGradient id="Dégradé_sans_nom_107-2" x1="217.26" y1="148.51" x2="234.62" y2="148.51" xlink:href="#Dégradé_sans_nom_107"/><linearGradient id="Dégradé_sans_nom_107-3" x1="113.91" y1="26.04" x2="131.27" y2="26.04" xlink:href="#Dégradé_sans_nom_107"/><linearGradient id="Dégradé_sans_nom_54" x1="85.31" y1="88.22" x2="177.23" y2="88.22" gradientUnits="userSpaceOnUse"><stop offset="0" stop-color="#ffc844"/><stop offset="1" stop-color="#fcd786"/></linearGradient><linearGradient id="Dégradé_sans_nom_4" x1="123.26" y1="65.38" x2="151.93" y2="65.38" gradientUnits="userSpaceOnUse"><stop offset="0" stop-color="#f06a8c"/><stop offset="1" stop-color="#f6a38d"/></linearGradient><linearGradient id="Dégradé_sans_nom_107-4" x1="145.84" y1="88.22" x2="212.28" y2="88.22" xlink:href="#Dégradé_sans_nom_107"/></defs><title>Fichier 102</title><g id="Calque_1-2"><path class="cls-1" d="M168.93 169.1a6.37 6.37 0 0 0-2.38-5.69l-116.84-92.71a6.39 6.39 0 0 0-10.2 3.56l-39.34 169.07a6.41 6.41 0 0 0 2.49 6.67l.23.2a6.4 6.4 0 0 0 6.8.72l155.71-76.77a6.37 6.37 0 0 0 3.53-5.05z"/><ellipse class="cls-2" cx="103.87" cy="122.42" rx="22.15" ry="80.97" transform="translate(-56.59 127.69) rotate(-51.57)"/><path class="cls-3" d="M74.61 45.67l-6.85-6.85a1.81 1.81 0 0 0-2.58 0l-6.86 6.85a1.83 1.83 0 0 0 0 2.58l6.86 6.86a1.83 1.83 0 0 0 2.58 0l6.85-6.86a1.81 1.81 0 0 0 0-2.58zM195.89 150.46l-6.89-6.85a1.81 1.81 0 0 0-2.58 0l-6.85 6.85a1.8 1.8 0 0 0-.54 1.29 1.82 1.82 0 0 0 .54 1.3l6.85 6.85a1.83 1.83 0 0 0 2.58 0l6.86-6.85a1.86 1.86 0 0 0 .53-1.3 1.83 1.83 0 0 0-.5-1.29z"/><path class="cls-4" d="M194.06 46.3l-6.85-6.86a1.84 1.84 0 0 0-2.59 0l-6.85 6.86a1.81 1.81 0 0 0 0 2.58l6.85 6.85a1.82 1.82 0 0 0 2.59 0l6.85-6.85a1.81 1.81 0 0 0 0-2.58z"/><path class="cls-5" d="M234.09 147.22l-6.86-6.85a1.81 1.81 0 0 0-2.58 0l-6.86 6.85a1.83 1.83 0 0 0 0 2.58l6.86 6.86a1.83 1.83 0 0 0 2.58 0l6.86-6.86a1.83 1.83 0 0 0 0-2.58z"/><path class="cls-6" d="M84.77 7.39l-6.85-6.85a1.81 1.81 0 0 0-2.58 0l-6.86 6.85a1.83 1.83 0 0 0 0 2.58l6.86 6.85a1.79 1.79 0 0 0 1.29.54 1.83 1.83 0 0 0 1.29-.54l6.85-6.82a1.81 1.81 0 0 0 0-2.58zM216.72 112.71l-6.85-6.85a1.83 1.83 0 0 0-2.58 0l-6.86 6.85a1.85 1.85 0 0 0 0 2.59l6.86 6.85a1.83 1.83 0 0 0 2.58 0l6.85-6.85a1.82 1.82 0 0 0 0-2.59z"/><path class="cls-7" d="M130.74 24.75l-6.86-6.85a1.81 1.81 0 0 0-2.58 0l-6.86 6.85a1.83 1.83 0 0 0 0 2.58l6.86 6.85a1.81 1.81 0 0 0 2.58 0l6.86-6.85a1.83 1.83 0 0 0 0-2.58z"/><path class="cls-8" d="M172.88 121.47a98.74 98.74 0 0 0-74.36 9.12c10-31.17 17.28-64.19 3.9-95.56-2.77-6.49-13-2.52-10.22 4 13.56 31.79 3.72 65.55-6.89 96.71 3.65 2.93 8.86 7.1 11.26 9a88.8 88.8 0 0 1 74.77-12.4c6.77 1.86 8.27-9 1.54-10.87z"/><path class="cls-9" d="M132.28 88.5c-.39-1.3-3.6-9.31-3.12-10.51 1.67-4.18 7.12.75 9.15 2.14 2.32 1.6 5.07-1.46 3.77-3.72-1.75-3-5.86-7.8-6.46-11.22q-4.29-4.32 2.7-4a20 20 0 0 1 7.52 1.21c2.48.72 4.79-2.77 2.66-4.57q-7.41-5.09 1.6-13.42c3.22-1.32 1.83-6.63-1.43-5.29-9.83 4-12.61 15.35-4.07 22.56l2.66-4.57c-4.59-1.33-15.18-3.4-18.48 1.74-3.45 5.38 6.19 16.2 8.55 20.29l3.76-3.73c-3.75-2.58-11.2-7.48-15.81-3.61-4.86 4.1.41 13.76 1.71 18.13 1 3.37 6.3 2 5.29-1.43z"/><path class="cls-10" d="M206.15 75.4c-.88 1.39-5.68 10.8-7.17 11.32-5.2 1.83-5-7.16-5.39-10.16-.39-3.41-5.42-3.5-6.46-.47-1.4 4.06-2.47 11.67-5.14 15q-.53 7.43-5.86.72a24.1 24.1 0 0 1-4.93-7.89c-1.34-2.87-6.42-2.19-6.36 1.21q1.28 10.92-13.66 9.33c-3.8-1.9-7.58 3.65-3.72 5.58 11.61 5.82 24.29-.73 24.07-14.4l-6.36 1.21c2.47 5.32 9.09 16.74 16.47 15.64 7.74-1.15 10-18.74 11.83-24.2l-6.47-.49c.64 5.54 2.12 16.35 9.4 17.47 7.68 1.19 12.35-11.44 15.33-16.16 2.3-3.63-3.26-7.37-5.58-3.71z"/></g></svg>